<?xml version="1.0" encoding="UTF-8"?>
<svg viewBox="0 0 375 1680" xmlns="http://www.w3.org/2000/svg" width="375" height="1680">
<title>Wireframe — homepage mobile — the zØmbie zØne</title>
<desc>Homepage format mobile 375px : navbar hamburger, hero, sections 1 col, CTA, footer empilé.</desc>
<defs><style>text { font-family: ui-sans-serif, system-ui, Arial, sans-serif; }</style></defs>

<rect width="375" height="1680" fill="#f5f4f0" rx="8"/>

<!-- NAVBAR mobile -->
<rect x="0" y="0" width="375" height="48" fill="#0a0a0a" rx="6"/>
<rect x="0" y="42" width="375" height="6" fill="#0a0a0a"/>
<line x1="0" y1="48" x2="375" y2="48" stroke="#222" stroke-width="0.5"/>
<text x="16" y="29" font-size="13" font-weight="500" fill="#c8a84b">the </text>
<text x="41" y="29" font-size="13" font-weight="500" fill="#E24B4A">zØmbie</text>
<text x="100" y="29" font-size="13" font-weight="500" fill="#c8a84b"> zØne</text>
<!-- hamburger -->
<line x1="340" y1="18" x2="358" y2="18" stroke="#888" stroke-width="1.5" stroke-linecap="round"/>
<line x1="340" y1="24" x2="358" y2="24" stroke="#888" stroke-width="1.5" stroke-linecap="round"/>
<line x1="340" y1="30" x2="358" y2="30" stroke="#888" stroke-width="1.5" stroke-linecap="round"/>
<text x="316" y="30" font-size="9" fill="#888">☰</text>

<!-- HERO mobile -->
<rect x="0" y="48" width="375" height="280" fill="#1a0808"/>
<rect x="0" y="48" width="375" height="280" fill="#0d0505" opacity="0.65"/>
<text x="188" y="110" font-size="8" fill="#333" text-anchor="middle">[ image de fond · cover ]</text>
<text x="188" y="150" font-size="10" fill="#aaa" text-anchor="middle" letter-spacing="0.1em">MALVENUE DANS LA</text>
<text x="188" y="182" font-size="32" font-weight="700" fill="#E24B4A" text-anchor="middle">zØmbie</text>
<text x="188" y="210" font-size="32" font-weight="700" fill="#E24B4A" text-anchor="middle">zØne</text>
<text x="188" y="234" font-size="9" fill="#888" text-anchor="middle" font-style="italic">Vous avez déjà des ennuis, laissez-nous</text>
<text x="188" y="246" font-size="9" fill="#888" text-anchor="middle" font-style="italic">vous aider à votre propre salvation.</text>
<rect x="88" y="256" width="200" height="26" rx="3" fill="#E24B4A"/>
<text x="188" y="273" font-size="9" fill="white" text-anchor="middle" letter-spacing="0.05em">S'INSCRIRE ET VENIR !</text>

<!-- SECTION SESSIONS mobile — 1 col -->
<rect x="0" y="328" width="375" height="420" fill="white"/>
<line x1="0" y1="328" x2="375" y2="328" stroke="#ddd" stroke-width="0.5"/>
<text x="188" y="354" font-size="11" font-weight="500" fill="#111" text-anchor="middle" letter-spacing="0.06em">PROCHAINES SESSIONS</text>
<text x="188" y="366" font-size="7.5" fill="#aaa" text-anchor="middle">limit=4 · sort=date · status=Scheduled</text>

<!-- card session 1 -->
<rect x="16" y="374" width="343" height="84" rx="5" fill="#1c1c1c" stroke="#2a2a2a" stroke-width="0.5"/>
<rect x="16" y="374" width="343" height="40" rx="5" fill="#2a2a2a"/>
<rect x="16" y="396" width="343" height="18" fill="#2a2a2a"/>
<text x="188" y="390" font-size="8" fill="#555" text-anchor="middle">[ img · h-40 · object-cover ]</text>
<rect x="22" y="380" width="50" height="12" rx="2" fill="rgba(0,0,0,0.82)"/>
<text x="47" y="389" font-size="7.5" fill="#ccc" text-anchor="middle">sam. 14 juin</text>
<rect x="299" y="380" width="52" height="12" rx="2" fill="#E24B4A"/>
<text x="325" y="389" font-size="7.5" fill="white" text-anchor="middle">14h00</text>
<text x="24" y="428" font-size="9" font-weight="500" fill="#eee">Nom de l'activité</text>
<text x="24" y="440" font-size="8" fill="#888">12 places disponibles</text>
<text x="24" y="452" font-size="10" font-weight="500" fill="#E24B4A">€29,90</text>
<rect x="282" y="444" width="68" height="18" rx="3" fill="#E24B4A"/>
<text x="316" y="457" font-size="8" fill="white" text-anchor="middle" letter-spacing="0.04em">RÉSERVER</text>

<!-- cards 2-4 -->
<rect x="16" y="466" width="343" height="84" rx="5" fill="#1c1c1c" stroke="#2a2a2a" stroke-width="0.5"/>
<rect x="16" y="466" width="343" height="40" rx="5" fill="#2a2a2a"/>
<rect x="16" y="488" width="343" height="62" fill="#252525"/>
<text x="24" y="530" font-size="9" font-weight="500" fill="#444">Escape Room Apocalypse</text>

<rect x="16" y="558" width="343" height="84" rx="5" fill="#1c1c1c" stroke="#2a2a2a" stroke-width="0.5"/>
<rect x="16" y="558" width="343" height="40" rx="5" fill="#2a2a2a"/>
<rect x="16" y="580" width="343" height="62" fill="#252525"/>

<rect x="16" y="650" width="343" height="84" rx="5" fill="#1c1c1c" stroke="#2a2a2a" stroke-width="0.5"/>
<rect x="16" y="650" width="343" height="40" rx="5" fill="#2a2a2a"/>
<rect x="16" y="672" width="343" height="62" fill="#252525"/>

<text x="188" y="740" font-size="9" fill="#777" text-anchor="middle">→ Voir toutes les sessions</text>

<!-- SECTION ACTIVITÉS mobile -->
<rect x="0" y="748" width="375" height="420" fill="#1a1a1a"/>
<line x1="0" y1="748" x2="375" y2="748" stroke="#333" stroke-width="0.5"/>
<text x="188" y="774" font-size="11" font-weight="500" fill="#eee" text-anchor="middle" letter-spacing="0.06em">LES ÉPREUVES DE LA ZONE</text>
<text x="188" y="786" font-size="7.5" fill="#555" text-anchor="middle">limit=4</text>

<!-- card activité 1 -->
<rect x="16" y="794" width="343" height="88" rx="5" fill="#141414" stroke="#2a2a2a" stroke-width="0.5"/>
<rect x="16" y="794" width="343" height="44" rx="5" fill="#222"/>
<rect x="16" y="820" width="343" height="18" fill="#222"/>
<text x="188" y="812" font-size="8" fill="#555" text-anchor="middle">[ img · h-40 ]</text>
<text x="24" y="832" font-size="9" font-weight="500" fill="#eee">Survie en zone contaminée</text>
<text x="24" y="844" font-size="8" fill="#666">Expérience immersive de survie…</text>
<text x="24" y="857" font-size="8" fill="#666">⏱ 20 min.</text>
<rect x="274" y="849" width="72" height="18" rx="2" stroke="#777" stroke-width="0.5" fill="none"/>
<text x="310" y="862" font-size="7.5" fill="#999" text-anchor="middle" letter-spacing="0.04em">DÉCOUVRIR</text>

<!-- cards 2-4 -->
<rect x="16" y="890" width="343" height="88" rx="5" fill="#141414" stroke="#2a2a2a" stroke-width="0.5"/>
<rect x="16" y="890" width="343" height="44" rx="5" fill="#222"/>
<rect x="16" y="916" width="343" height="62" fill="#1a1a1a"/>

<rect x="16" y="986" width="343" height="88" rx="5" fill="#141414" stroke="#2a2a2a" stroke-width="0.5"/>
<rect x="16" y="986" width="343" height="44" rx="5" fill="#222"/>
<rect x="16" y="1012" width="343" height="62" fill="#1a1a1a"/>

<rect x="16" y="1082" width="343" height="88" rx="5" fill="#141414" stroke="#2a2a2a" stroke-width="0.5"/>
<rect x="16" y="1082" width="343" height="44" rx="5" fill="#222"/>
<rect x="16" y="1108" width="343" height="62" fill="#1a1a1a"/>

<text x="188" y="1156" font-size="9" fill="#777" text-anchor="middle">→ Découvrir toutes les épreuves</text>

<!-- SECTION CATÉGORIES mobile -->
<rect x="0" y="1164" width="375" height="420" fill="white"/>
<line x1="0" y1="1164" x2="375" y2="1164" stroke="#ddd" stroke-width="0.5"/>
<text x="188" y="1190" font-size="11" font-weight="500" fill="#111" text-anchor="middle" letter-spacing="0.06em">EXPLOREZ NOS CATÉGORIES</text>

<!-- cards catégorie 1-4 -->
<rect x="16" y="1198" width="343" height="88" rx="5" fill="#1c1c1c" stroke="#ddd" stroke-width="0.5"/>
<rect x="16" y="1198" width="343" height="52" rx="5" fill="#dddbd7"/>
<rect x="16" y="1228" width="343" height="22" fill="rgba(0,0,0,0.45)"/>
<text x="188" y="1244" font-size="8" fill="#fff" text-anchor="middle">[ icône + titre catégorie ]</text>
<text x="24" y="1268" font-size="8" fill="#777">Description courte de la catégorie…</text>
<rect x="18" y="1272" width="337" height="12" rx="2" stroke="#666" stroke-width="0.5" fill="none"/>
<text x="188" y="1282" font-size="7.5" fill="#777" text-anchor="middle" letter-spacing="0.04em">VOIR LA CATÉGORIE</text>

<rect x="16" y="1294" width="343" height="88" rx="5" fill="#1c1c1c" stroke="#ddd" stroke-width="0.5"/>
<rect x="16" y="1294" width="343" height="52" rx="5" fill="#d8d6d2"/>
<rect x="16" y="1324" width="343" height="22" fill="rgba(0,0,0,0.45)"/>
<rect x="16" y="1346" width="343" height="36" fill="#f5f4f0"/>

<rect x="16" y="1390" width="343" height="88" rx="5" fill="#1c1c1c" stroke="#ddd" stroke-width="0.5"/>
<rect x="16" y="1390" width="343" height="52" rx="5" fill="#d8d6d2"/>
<rect x="16" y="1420" width="343" height="22" fill="rgba(0,0,0,0.45)"/>
<rect x="16" y="1442" width="343" height="36" fill="#f5f4f0"/>

<rect x="16" y="1486" width="343" height="88" rx="5" fill="#1c1c1c" stroke="#ddd" stroke-width="0.5"/>
<rect x="16" y="1486" width="343" height="52" rx="5" fill="#d8d6d2"/>
<rect x="16" y="1516" width="343" height="22" fill="rgba(0,0,0,0.45)"/>
<rect x="16" y="1538" width="343" height="36" fill="#f5f4f0"/>

<text x="188" y="1582" font-size="9" fill="#777" text-anchor="middle">→ Parcourir toutes les catégories</text>

<!-- CTA BANDEAU mobile -->
<rect x="0" y="1590" width="375" height="68" fill="#111"/>
<line x1="0" y1="1590" x2="375" y2="1590" stroke="#333" stroke-width="0.5"/>
<rect x="8" y="1598" width="359" height="52" rx="4" fill="#0d0505" stroke="#2a2a2a" stroke-width="0.5"/>
<text x="188" y="1617" font-size="9" fill="#fff" text-anchor="middle">Trouvez votre chemin parmi</text>
<text x="188" y="1629" font-size="9" fill="#fff" text-anchor="middle">les activités du parc</text>
<rect x="76" y="1636" width="224" height="20" rx="3" fill="#E24B4A"/>
<text x="188" y="1650" font-size="8" fill="white" text-anchor="middle" letter-spacing="0.04em">JE VEUX SURVIVRE !</text>

<!-- FOOTER mobile — empilé -->
<rect x="0" y="1658" width="375" height="22" fill="#080808"/>
<line x1="0" y1="1658" x2="375" y2="1658" stroke="#222" stroke-width="0.5"/>
<text x="188" y="1673" font-size="8" fill="#333" text-anchor="middle">© 2026 the zØmbie zØne. Tous droits réservés.</text>

<!-- note responsive -->
<text x="188" y="1698" font-size="7.5" fill="#888" text-anchor="middle">grid-template-columns: 1fr · breakpoint ≤640px</text>
<text x="188" y="1710" font-size="7.5" fill="#888" text-anchor="middle">navbar : liens masqués · hamburger visible · menu déroulant</text>
<text x="188" y="1722" font-size="7.5" fill="#555" text-anchor="middle">01-homepage-mobile.svg · z0mbiez0ne · Stéphane Rochard</text>
</svg>
