<?xml version="1.0" encoding="UTF-8"?>
<svg viewBox="0 0 375 980" xmlns="http://www.w3.org/2000/svg" width="375" height="980">
<title>Wireframe — /les-epreuves mobile — liste des activités</title>
<desc>Page liste activités format mobile 375px : navbar hamburger, header titre + recherche, grille 1 col, pagination.</desc>
<defs><style>text { font-family: ui-sans-serif, system-ui, Arial, sans-serif; }</style></defs>

<rect width="375" height="980" fill="#f5f4f0" rx="8"/>

<!-- NAVBAR mobile -->
<rect x="0" y="0" width="375" height="48" fill="#0a0a0a" rx="6"/>
<rect x="0" y="42" width="375" height="6" fill="#0a0a0a"/>
<line x1="0" y1="48" x2="375" y2="48" stroke="#222" stroke-width="0.5"/>
<text x="16" y="29" font-size="13" font-weight="500" fill="#c8a84b">the </text>
<text x="41" y="29" font-size="13" font-weight="500" fill="#E24B4A">zØmbie</text>
<text x="100" y="29" font-size="13" font-weight="500" fill="#c8a84b"> zØne</text>
<line x1="340" y1="17" x2="358" y2="17" stroke="#888" stroke-width="1.5" stroke-linecap="round"/>
<line x1="340" y1="24" x2="358" y2="24" stroke="#888" stroke-width="1.5" stroke-linecap="round"/>
<line x1="340" y1="31" x2="358" y2="31" stroke="#888" stroke-width="1.5" stroke-linecap="round"/>

<!-- PAGE HEADER mobile -->
<rect x="0" y="48" width="375" height="120" fill="#111"/>
<line x1="0" y1="168" x2="375" y2="168" stroke="#333" stroke-width="0.5"/>
<text x="188" y="84" font-size="15" font-weight="500" fill="#eee" text-anchor="middle" letter-spacing="0.06em">LES ÉPREUVES DE LA ZONE</text>
<text x="188" y="98" font-size="7.5" fill="#555" text-anchor="middle">/api/activities?limit=12&amp;page=1</text>
<!-- search input -->
<rect x="16" y="108" width="343" height="32" rx="4" fill="#1a1a1a" stroke="#333" stroke-width="0.5"/>
<text x="36" y="128" font-size="9" fill="#555">🔍  Rechercher une épreuve…</text>
<text x="188" y="156" font-size="7.5" fill="#444" text-anchor="middle">filtre côté client · désactive pagination si actif</text>

<!-- GRILLE 1 col — 8 cards visibles -->

<!-- card 1 — détaillée -->
<rect x="16" y="178" width="343" height="130" rx="5" fill="#1c1c1c" stroke="#2a2a2a" stroke-width="0.5"/>
<rect x="16" y="178" width="343" height="64" rx="5" fill="#222"/>
<rect x="16" y="224" width="343" height="18" fill="#222"/>
<text x="188" y="206" font-size="8" fill="#555" text-anchor="middle">[ img · h-40 · object-cover · width 100% ]</text>
<text x="24" y="238" font-size="10" font-weight="500" fill="#eee">Survie en zone contaminée</text>
<text x="24" y="252" font-size="8" fill="#666">Expérience immersive de survie post-apocalyptique…</text>
<text x="24" y="264" font-size="8" fill="#555">⏱ 20 min.</text>
<line x1="16" y1="272" x2="359" y2="272" stroke="#2a2a2a" stroke-width="0.5"/>
<text x="24" y="285" font-size="8" fill="#666">Catégorie A · Catégorie B</text>
<rect x="274" y="278" width="78" height="18" rx="2" stroke="#777" stroke-width="0.5" fill="none"/>
<text x="313" y="291" font-size="8" fill="#999" text-anchor="middle" letter-spacing="0.04em">DÉCOUVRIR</text>

<!-- card 2 -->
<rect x="16" y="318" width="343" height="130" rx="5" fill="#1c1c1c" stroke="#2a2a2a" stroke-width="0.5"/>
<rect x="16" y="318" width="343" height="64" rx="5" fill="#222"/>
<rect x="16" y="364" width="343" height="18" fill="#222"/>
<text x="24" y="378" font-size="10" font-weight="500" fill="#eee">Escape Room Apocalypse</text>
<text x="24" y="392" font-size="8" fill="#666">Résolvez les énigmes avant que les zombies…</text>
<text x="24" y="404" font-size="8" fill="#555">⏱ 20 min.</text>
<rect x="274" y="418" width="78" height="18" rx="2" stroke="#777" stroke-width="0.5" fill="none"/>
<text x="313" y="431" font-size="8" fill="#999" text-anchor="middle" letter-spacing="0.04em">DÉCOUVRIR</text>

<!-- cards 3-8 squelette -->
<rect x="16" y="458" width="343" height="130" rx="5" fill="#1c1c1c" stroke="#2a2a2a" stroke-width="0.5"/>
<rect x="16" y="458" width="343" height="64" rx="5" fill="#222"/>
<rect x="16" y="504" width="343" height="84" fill="#1a1a1a"/>
<text x="24" y="540" font-size="8" fill="#333">…</text>

<rect x="16" y="598" width="343" height="130" rx="5" fill="#1c1c1c" stroke="#2a2a2a" stroke-width="0.5"/>
<rect x="16" y="598" width="343" height="64" rx="5" fill="#222"/>
<rect x="16" y="644" width="343" height="84" fill="#1a1a1a"/>

<rect x="16" y="738" width="343" height="130" rx="5" fill="#1c1c1c" stroke="#2a2a2a" stroke-width="0.5"/>
<rect x="16" y="738" width="343" height="64" rx="5" fill="#222"/>
<rect x="16" y="784" width="343" height="84" fill="#1a1a1a"/>

<!-- PAGINATION -->
<line x1="0" y1="880" x2="375" y2="880" stroke="#2a2a2a" stroke-width="0.5"/>
<rect x="0" y="880" width="375" height="52" fill="#111"/>
<text x="188" y="900" font-size="7.5" fill="#444" text-anchor="middle">pagination · masquée si recherche active</text>
<rect x="116" y="906" width="28" height="18" rx="3" stroke="#444" stroke-width="0.5" fill="none"/>
<text x="130" y="919" font-size="9" fill="#666" text-anchor="middle">‹</text>
<rect x="148" y="906" width="28" height="18" rx="3" stroke="#E24B4A" stroke-width="0.5" fill="none"/>
<text x="162" y="919" font-size="9" fill="#E24B4A" text-anchor="middle">1</text>
<rect x="180" y="906" width="28" height="18" rx="3" stroke="#444" stroke-width="0.5" fill="none"/>
<text x="194" y="919" font-size="9" fill="#666" text-anchor="middle">2</text>
<rect x="212" y="906" width="28" height="18" rx="3" stroke="#444" stroke-width="0.5" fill="none"/>
<text x="226" y="919" font-size="9" fill="#666" text-anchor="middle">3</text>
<rect x="244" y="906" width="28" height="18" rx="3" stroke="#444" stroke-width="0.5" fill="none"/>
<text x="258" y="919" font-size="9" fill="#666" text-anchor="middle">›</text>

<!-- NOTES -->
<rect x="0" y="932" width="375" height="48" fill="#f0efec"/>
<line x1="0" y1="932" x2="375" y2="932" stroke="#ccc" stroke-width="0.5"/>
<text x="10" y="948" font-size="7.5" fill="#999">grid-template-columns: 1fr · breakpoint ≤640px</text>
<text x="10" y="960" font-size="7.5" fill="#999">search max-width: 100% · navbar hamburger · header dark bg</text>
<text x="10" y="972" font-size="7.5" fill="#555">02-activites-liste-mobile.svg · z0mbiez0ne · Stéphane Rochard</text>
</svg>
